<svg width="133" height="130" viewBox="0 0 133 130" fill="none" xmlns="http://www.w3.org/2000/svg">
<path d="M117.994 65.0022C117.994 68.7667 113.762 72.0111 112.951 75.5341C112.116 79.1748 114.497 83.9175 112.901 87.1991C111.281 90.5364 106.051 91.6385 103.745 94.5052C101.433 97.3843 101.508 102.697 98.6092 104.994C95.7233 107.285 90.5312 106.034 87.1717 107.644C83.8682 109.229 81.6243 114.052 77.9593 114.876C74.4128 115.674 70.2928 112.318 66.4969 112.318C62.701 112.318 58.5872 115.68 55.0344 114.876C51.3694 114.046 49.1256 109.223 45.8221 107.644C42.4625 106.034 37.2704 107.278 34.3846 104.994C31.4862 102.697 31.561 97.3843 29.2486 94.5052C26.9424 91.6385 21.7129 90.5364 20.0923 87.1991C18.4967 83.9175 20.8777 79.1748 20.0425 75.5341C19.2384 72.0111 15 68.7667 15 65.0022C15 61.2377 19.2322 57.9933 20.0425 54.4703C20.8777 50.8296 18.4967 46.0869 20.0923 42.8053C21.7129 39.4681 26.9424 38.366 29.2486 35.4992C31.561 32.6202 31.4862 27.3078 34.3846 25.0107C37.2704 22.7198 42.4625 23.9705 45.8221 22.3607C49.1256 20.7756 51.3694 15.9524 55.0344 15.1289C58.581 14.3302 62.701 17.686 66.4969 17.686C70.2928 17.686 74.4128 14.324 77.9656 15.1227C81.6306 15.9524 83.8744 20.7756 87.1779 22.3545C90.5375 23.9643 95.7296 22.7198 98.6154 25.0045C101.514 27.3016 101.439 32.614 103.751 35.4931C106.058 38.3598 111.287 39.4619 112.908 42.7991C114.503 46.0807 112.122 50.8234 112.958 54.4641C113.762 57.9871 118 61.2315 118 64.996L117.994 65.0022Z" fill="#2A3138"/>
<path d="M66.5021 110.24C91.4845 110.24 111.736 89.9855 111.735 65.0007C111.734 40.0159 91.4809 19.7617 66.4985 19.7617C41.516 19.7617 21.2646 40.0159 21.2656 65.0007C21.2666 89.9855 41.5197 110.24 66.5021 110.24Z" fill="white"/>
<path d="M49.0453 57.1126H40.7548V59.9984H48.0479V65.5332H40.7548V68.849H49.0453V74.7204H33.3931V51.2476H49.0453V57.1126Z" fill="#2A3138"/>
<path d="M62.7714 51.0106C68.9737 51.0106 73.1813 54.7254 74.1412 60.2601H66.3806C65.6824 58.7019 64.2924 57.8044 62.6343 57.8044C60.1471 57.8044 58.6199 59.8301 58.6199 62.9465C58.6199 66.0629 60.1471 68.0823 62.6343 68.0823C64.2924 68.0823 65.6824 67.1848 66.3806 65.6266H74.1412C73.1813 71.1613 68.9675 74.8761 62.7714 74.8761C55.578 74.8761 51.1647 69.9335 51.1647 62.9402C51.1647 55.947 55.5717 51.0044 62.7714 51.0044V51.0106Z" fill="#2A3138"/>
<path d="M88.2352 74.9509C81.5716 74.9509 76.1298 69.946 76.1298 62.8842C76.1298 55.8224 81.5653 50.8486 88.2352 50.8486C94.905 50.8486 100.272 55.8224 100.272 62.8842C100.272 69.946 94.8676 74.9509 88.2352 74.9509ZM88.2352 68.0886C91.1836 68.0886 92.8105 66.0006 92.8105 62.8842C92.8105 59.7678 91.1836 57.6486 88.2352 57.6486C85.2867 57.6486 83.6286 59.7055 83.6286 62.8842C83.6286 66.0629 85.2182 68.0886 88.2352 68.0886Z" fill="#2A3138"/>
<path d="M26.7047 95.9868L29.4225 87.3855L26.7047 78.7842H106.294L103.582 87.3855L106.294 95.9868H26.7047Z" fill="#2A3138"/>
<path d="M104.592 80.0307L102.273 87.3855L104.592 94.7402H28.4064L30.7252 87.3855L28.4064 80.0307H104.592ZM107.995 77.5376H25.0092L26.0314 80.7787L28.1134 87.3855L26.0314 93.9922L25.0092 97.2333H107.995L106.973 93.9922L104.891 87.3855L106.973 80.7787L107.995 77.5376Z" fill="#F9FBFC"/>
<path d="M71.3301 39.4303L66.4991 40.814C66.4991 37.7911 68.5001 35.1359 71.4111 34.3007L76.2421 32.917C76.2421 35.9399 74.2411 38.5951 71.3301 39.4303Z" fill="#2A3138"/>
<path d="M61.5934 34.3007L56.7625 32.917C56.7625 35.9399 58.7634 38.5951 61.6744 39.4303L66.5054 40.814C66.5054 37.7911 64.5044 35.1359 61.5934 34.3007Z" fill="#2A3138"/>
<path d="M71.3301 45.3575L66.4991 46.7412C66.4991 43.7183 68.5001 41.0631 71.4111 40.2279L76.2421 38.8442C76.2421 41.8672 74.2411 44.5223 71.3301 45.3575Z" fill="#2A3138"/>
<path d="M61.5934 40.2279L56.7625 38.8442C56.7625 41.8672 58.7634 44.5223 61.6744 45.3575L66.5054 46.7412C66.5054 43.7183 64.5044 41.0631 61.5934 40.2279Z" fill="#2A3138"/>
<path d="M66.4991 36.8871C63.4946 33.8829 63.4946 29.0151 66.4991 26.0171C69.5037 29.0213 69.5037 33.8891 66.4991 36.8871Z" fill="#2A3138"/>
<path d="M36.3103 82.767H42.2508V84.7054H38.7476V86.2449H41.3345V88.096H38.7476V91.5241H36.3103V82.7607V82.767Z" fill="#F9FBFC"/>
<path d="M47.437 82.7671C49.6125 82.7671 50.7096 84.0074 50.7096 85.5781C50.7096 86.7187 50.0862 87.7159 48.7834 88.1148L50.7594 91.5304H48.0354L46.2963 88.2956H46.0345V91.5304H43.5972V82.7671H47.437ZM47.2375 84.8052H46.0345V86.6314H47.2375C47.8983 86.6314 48.2349 86.3073 48.2349 85.709C48.2349 85.1605 47.8983 84.799 47.2375 84.799V84.8052Z" fill="#F9FBFC"/>
<path d="M52.1183 82.7671H54.5556V91.5304H52.1183V82.7671Z" fill="#F9FBFC"/>
<path d="M61.8676 84.7178H58.6947V86.1452H61.4936V87.9963H58.6947V89.5732H61.8676V91.5241H56.2637V82.7607H61.8676V84.7116V84.7178Z" fill="#F9FBFC"/>
<path d="M71.4982 82.7671V91.5304H69.0609L65.8133 86.6314V91.5304H63.376V82.7671H65.8133L69.0609 87.7284V82.7671H71.4982Z" fill="#F9FBFC"/>
<path d="M81.2411 87.1425C81.2411 89.6793 79.4646 91.5304 76.6658 91.5304H73.2V82.7671H76.6658C79.4646 82.7671 81.2411 84.5684 81.2411 87.1425ZM76.4788 89.3801C77.8813 89.3801 78.7664 88.5823 78.7664 87.1425C78.7664 85.7027 77.8813 84.88 76.4788 84.88H75.631V89.3801H76.4788Z" fill="#F9FBFC"/>
<path d="M85.081 82.7671V89.6668H87.805V91.5304H82.6437V82.7671H85.081Z" fill="#F9FBFC"/>
<path d="M88.4097 82.7671H91.196L92.7357 86.1453L94.2754 82.7671H97.0243L93.9388 88.7444V91.5304H91.489V88.7444L88.4034 82.7671H88.4097Z" fill="#F9FBFC"/>
</svg>
