<svg width="130" height="130" viewBox="0 0 130 130" fill="none" xmlns="http://www.w3.org/2000/svg">
<path fill-rule="evenodd" clip-rule="evenodd" d="M65 17.8904C38.9821 17.8904 17.8904 38.9821 17.8904 65C17.8904 91.0179 38.9821 112.11 65 112.11C91.0179 112.11 112.11 91.0179 112.11 65C112.11 38.9821 91.0179 17.8904 65 17.8904ZM17 65C17 38.4903 38.4903 17 65 17C91.5097 17 113 38.4903 113 65C113 91.5097 91.5097 113 65 113C38.4903 113 17 91.5097 17 65Z" fill="#2A3138"/>
<path fill-rule="evenodd" clip-rule="evenodd" d="M65 15.8873C37.8758 15.8873 15.8873 37.8758 15.8873 65C15.8873 92.1242 37.8758 114.113 65 114.113C92.1242 114.113 114.113 92.1242 114.113 65C114.113 37.8758 92.1242 15.8873 65 15.8873ZM15 65C15 37.3858 37.3858 15 65 15C92.6142 15 115 37.3858 115 65C115 92.6142 92.6142 115 65 115C37.3858 115 15 92.6142 15 65Z" fill="#2A3138"/>
<path fill-rule="evenodd" clip-rule="evenodd" d="M65 38.9185C50.5952 38.9185 38.9181 50.5955 38.9181 65.0003C38.9181 79.4052 50.5952 91.0822 65 91.0822C79.4048 91.0822 91.0819 79.4052 91.0819 65.0003C91.0819 50.5955 79.4048 38.9185 65 38.9185ZM37.6982 65.0003C37.6982 49.9218 49.9214 37.6985 65 37.6985C80.0786 37.6985 92.3019 49.9218 92.3019 65.0003C92.3019 80.0789 80.0786 92.3022 65 92.3022C49.9214 92.3022 37.6982 80.0789 37.6982 65.0003Z" fill="#2A3138"/>
<path d="M39.1355 43.8988C38.5455 43.9299 38.002 43.7203 37.503 43.27L33.5802 39.7332C33.0811 39.284 32.8172 38.7639 32.7861 38.1738C32.755 37.5849 32.9647 37.0404 33.4149 36.5413C33.8641 36.0422 34.3843 35.7783 34.9743 35.7472C35.5643 35.7173 36.1078 35.9258 36.6068 36.376L37.4364 37.1236L36.4882 38.1749L35.6586 37.4274C35.4567 37.2456 35.2427 37.1568 35.0187 37.1613C34.7935 37.1668 34.5994 37.26 34.4353 37.4419C34.2711 37.6237 34.1979 37.8267 34.2157 38.0507C34.2334 38.2748 34.3443 38.4777 34.5462 38.6596L38.469 42.1964C38.6708 42.3783 38.8849 42.467 39.1089 42.4626C39.334 42.457 39.5281 42.3639 39.6923 42.182C39.8564 42.0001 39.9296 41.7972 39.9118 41.5731C39.8941 41.3491 39.7832 41.1461 39.5813 40.9631L38.5699 40.0515L39.5181 39.0001L40.5296 39.9117C41.0287 40.362 41.2926 40.8811 41.3237 41.4711C41.3547 42.0611 41.1451 42.6046 40.6948 43.1036C40.2446 43.6027 39.7255 43.8678 39.1355 43.8977V43.8988Z" fill="#2A3138"/>
<path d="M39.3673 31.2126L42.7389 28.8835L43.513 30.0037L41.3292 31.512L42.8376 33.6958L44.5733 32.4969L45.3474 33.617L43.6117 34.8159L45.1977 37.1117L47.3814 35.6034L48.1555 36.7235L44.784 39.0526L39.3684 31.2115L39.3673 31.2126Z" fill="#2A3138"/>
<path d="M54.1866 33.9798L51.7955 30.6837L51.0968 30.9521L52.5086 34.6242L51.1622 35.1421L47.7418 26.2474L49.8513 25.4367C50.4945 25.1894 51.0812 25.1849 51.6114 25.4234C52.1404 25.6618 52.5297 26.1032 52.777 26.7476L53.153 27.7258C53.3094 28.1328 53.367 28.5232 53.3271 28.8992C53.2872 29.2752 53.1519 29.6079 52.9245 29.8996L55.5852 33.4419L54.1877 33.9798H54.1866ZM50.6088 29.6822L51.3075 29.4138C51.5703 29.3129 51.7456 29.1631 51.8343 28.9635C51.923 28.7639 51.9164 28.5332 51.8154 28.2703L51.4195 27.2411C51.3186 26.9783 51.1689 26.8031 50.9692 26.7143C50.7696 26.6256 50.5389 26.6323 50.2761 26.7332L49.5773 27.0016L50.6088 29.6822Z" fill="#2A3138"/>
<path d="M57.1512 23.3135L61.7139 22.7146L61.8913 24.0643L60.3253 24.2695L61.3889 32.3679L59.9582 32.5553L58.8946 24.4569L57.3286 24.6621L57.1512 23.3124V23.3135Z" fill="#2A3138"/>
<path d="M66.9464 22.6895L68.3871 22.7793L67.796 32.2906L66.3553 32.2008L66.9464 22.6895Z" fill="#2A3138"/>
<path d="M74.03 23.5779L77.9284 24.5971L77.5846 25.9147L75.0825 25.2603L74.3772 27.9609L76.3524 28.4777L76.0086 29.7953L74.0333 29.2785L73.0174 33.1635L71.6211 32.7987L74.0311 23.579L74.03 23.5779Z" fill="#2A3138"/>
<path d="M82.7994 26.5488L84.0981 27.1766L79.9513 35.7563L78.6526 35.1286L82.7994 26.5488Z" fill="#2A3138"/>
<path d="M89.0335 30.0593L92.3063 32.5259L91.4867 33.6128L89.3662 32.0157L87.7692 34.1363L89.4538 35.4061L88.6342 36.493L86.9495 35.2231L85.2704 37.4524L87.391 39.0494L86.5714 40.1363L83.2985 37.6708L89.0335 30.0604V30.0593Z" fill="#2A3138"/>
<path d="M96.381 36.4343L97.8173 38.1789C98.2553 38.7112 98.445 39.2669 98.3862 39.8447C98.3274 40.4225 98.0313 40.9305 97.499 41.3686L93.6527 44.536C93.1204 44.9741 92.5647 45.1671 91.9869 45.115C91.408 45.0629 90.9 44.7701 90.4619 44.2377L89.0257 42.4932L96.3821 36.4354L96.381 36.4343ZM91.469 43.3183C91.6475 43.5357 91.8461 43.6543 92.0634 43.6754C92.2808 43.6965 92.4982 43.6177 92.7145 43.4392L96.6028 40.2373C96.8202 40.0588 96.9389 39.8602 96.96 39.6429C96.981 39.4255 96.9023 39.2081 96.7237 38.9918L96.2479 38.414L90.9932 42.7416L91.469 43.3194V43.3183Z" fill="#2A3138"/>
<path d="M35.1817 93.7327C35.1706 93.1426 35.398 92.6058 35.8638 92.1212L39.527 88.316C39.9928 87.8324 40.5207 87.584 41.1108 87.5729C41.7008 87.5618 42.2376 87.7892 42.7222 88.255C43.2058 88.7208 43.4531 89.2487 43.4653 89.8387C43.4764 90.4287 43.249 90.9666 42.7832 91.4502L42.0091 92.2543L40.9888 91.2727L41.7629 90.4687C41.9514 90.2724 42.0468 90.0616 42.049 89.8376C42.0512 89.6125 41.9636 89.4151 41.7873 89.2454C41.6109 89.0757 41.4102 88.9958 41.1862 89.0069C40.9621 89.018 40.7547 89.1212 40.5662 89.3175L36.903 93.1227C36.7144 93.319 36.619 93.5297 36.6168 93.7537C36.6146 93.9789 36.7022 94.1763 36.8786 94.346C37.0549 94.5156 37.2556 94.5955 37.4797 94.5844C37.7037 94.5733 37.9111 94.4702 38.0996 94.2739L39.0435 93.2935L40.0638 94.275L39.12 95.2554C38.6542 95.7389 38.1263 95.9874 37.5362 95.9985C36.9462 96.0096 36.4083 95.7822 35.9248 95.3164C35.4412 94.8506 35.1928 94.3227 35.1817 93.7327Z" fill="#2A3138"/>
<path d="M42.7544 99.9293C42.598 99.3504 42.6934 98.7626 43.0416 98.1659L45.6601 93.673C46.0073 93.0775 46.4709 92.7037 47.052 92.554C47.6332 92.4043 48.221 92.503 48.8176 92.8501C49.4132 93.1973 49.7892 93.6608 49.9456 94.2398C50.1019 94.8187 50.0054 95.4065 49.6583 96.0032L47.0398 100.496C46.6927 101.092 46.228 101.465 45.6479 101.615C45.0668 101.765 44.4779 101.666 43.8823 101.319C43.2867 100.972 42.9108 100.508 42.7544 99.9293ZM45.2442 100.253C45.4594 100.19 45.6435 100.029 45.7932 99.7696L48.4117 95.2768C48.5626 95.0183 48.6125 94.7788 48.5614 94.5603C48.5104 94.3418 48.3674 94.1633 48.1322 94.0268C47.8971 93.8904 47.672 93.8527 47.4557 93.9159C47.2405 93.9792 47.0575 94.14 46.9067 94.3995L44.2882 98.8923C44.1374 99.1507 44.0875 99.3903 44.1385 99.6088C44.1895 99.8273 44.3326 100.006 44.5677 100.142C44.8028 100.279 45.028 100.316 45.2442 100.253Z" fill="#2A3138"/>
<path d="M60.0181 97.1297L57.6236 106.354L56.2273 105.991L57.8699 99.6661L54.9231 105.652L53.9482 105.399L54.2854 98.7356L52.6428 105.061L51.272 104.705L53.6665 95.4805L55.6428 95.994L55.3257 102.198L58.014 96.6095L60.017 97.1297H60.0181Z" fill="#2A3138"/>
<path d="M63.3908 97.3703L65.6499 97.3337C66.3398 97.3226 66.8921 97.52 67.3069 97.9259C67.7217 98.3319 67.9346 98.8797 67.9457 99.5696L67.9635 100.685C67.9745 101.375 67.7793 101.93 67.3779 102.349C66.9764 102.768 66.4307 102.983 65.7409 102.994L64.9246 103.008L64.9878 106.874L63.5449 106.897L63.3908 97.3692V97.3703ZM65.6522 101.636C65.9339 101.631 66.1501 101.55 66.3021 101.394C66.454 101.238 66.5272 101.018 66.5228 100.737L66.5039 99.5674C66.4995 99.2857 66.4185 99.0694 66.2621 98.9174C66.1058 98.7655 65.8862 98.6923 65.6056 98.6967L64.857 98.7089L64.9047 101.649L65.6533 101.637L65.6522 101.636Z" fill="#2A3138"/>
<path d="M74.9816 103.505L73.4722 103.864L73.6563 105.989L72.2522 106.323L71.5823 96.6872L73.4633 96.2402L77.2053 105.145L75.7746 105.485L74.9816 103.505ZM74.4748 102.198L72.982 98.4528L73.3358 102.469L74.4748 102.198Z" fill="#2A3138"/>
<path d="M77.7687 94.8231L79.1817 94.0867L83.7676 98.9111L80.8109 93.2371L82.0663 92.5828L86.4704 101.034L85.1185 101.738L80.6101 97.2098L83.4283 102.619L82.1728 103.273L77.7687 94.822V94.8231Z" fill="#2A3138"/>
<path d="M88.449 87.4287L90.6827 92.8554L93.3311 95.8376L92.252 96.7959L89.6035 93.8136L84.4785 90.9544L85.6286 89.933L88.8771 91.9093L87.3189 88.4324L88.449 87.4287Z" fill="#2A3138"/>
<path d="M26.0574 61.6504L26.8992 64.2423H29.6242L27.4193 65.8438L28.2611 68.4357L26.0574 66.8331L23.8526 68.4357L24.6944 65.8438L22.4895 64.2423H25.2145L26.0574 61.6504Z" fill="#2A3138"/>
<path d="M28.1646 49.0784L29.0064 51.6703H31.7314L29.5266 53.2717L30.3683 55.8625L28.1646 54.261L25.9598 55.8625L26.8016 53.2717L24.5968 51.6703H27.3217L28.1646 49.0784Z" fill="#2A3138"/>
<path d="M102.028 49.0784L102.87 51.6703H105.595L103.39 53.2717L104.232 55.8625L102.028 54.261L99.8236 55.8625L100.665 53.2717L98.4605 51.6703H101.185L102.028 49.0784Z" fill="#2A3138"/>
<path d="M30.05 76.4011L30.8918 78.993H33.6168L31.412 80.5945L32.2537 83.1864L30.05 81.5838L27.8452 83.1864L28.687 80.5945L26.4822 78.993H29.2071L30.05 76.4011Z" fill="#2A3138"/>
<path d="M100.186 76.5125L101.028 79.1043H103.753L101.548 80.7058L102.391 83.2977L100.186 81.6951L97.9814 83.2977L98.8243 80.7058L96.6195 79.1043H99.3445L100.186 76.5125Z" fill="#2A3138"/>
<path d="M103.299 62.3162L104.141 64.908H106.866L104.661 66.5095L105.504 69.1014L103.299 67.4988L101.095 69.1014L101.937 66.5095L99.7326 64.908H102.458L103.299 62.3162Z" fill="#2A3138"/>
<path fill-rule="evenodd" clip-rule="evenodd" d="M65.0011 90.3337C78.992 90.3337 90.3344 78.9913 90.3344 65.0004C90.3344 51.0084 78.9931 39.666 65.0011 39.666C51.0092 39.666 39.6667 51.0095 39.6667 65.0004C39.6667 78.9913 51.0103 90.3337 65.0011 90.3337ZM73.6751 72.1692C74.9849 72.747 76.348 73.0287 77.7864 73.0831C78.0477 73.0482 78.3098 73.0177 78.5719 72.9872L78.5723 72.9872L78.5727 72.9872L78.573 72.9871L78.5734 72.9871L78.5735 72.987C79.1444 72.9207 79.7153 72.8543 80.2774 72.7426C83.293 72.1448 85.1728 70.377 85.7884 67.3204C86.0911 65.8209 86.0645 64.3348 85.7917 62.8342C85.3791 60.5639 84.178 58.9214 82.0475 58.002C79.2482 56.7942 76.4356 56.7987 73.6119 57.941C71.7565 58.6918 70.5653 60.0704 70.0219 61.947C69.4696 63.8501 69.4019 65.7998 69.8966 67.7463C70.43 69.8446 71.701 71.2986 73.6751 72.1692ZM75.2374 65.4865V65.4865V65.4865V65.4864V65.4864C75.2289 65.2606 75.2203 65.0319 75.2079 64.7995C75.2283 64.5778 75.2462 64.3523 75.2643 64.1244L75.2643 64.124L75.2644 64.1238L75.2644 64.1236V64.1236C75.3052 63.6093 75.3471 63.083 75.4208 62.5614C75.5295 61.795 75.9831 61.2693 76.7484 61.0974C77.2375 60.9876 77.7543 60.8933 78.2478 60.9288C79.4201 61.0142 80.1399 61.5577 80.2297 62.7067C80.3573 64.3326 80.3495 65.9839 80.2264 67.6109C80.1454 68.6912 79.0308 69.2956 77.7166 69.2113C76.1328 69.1093 75.514 68.527 75.3254 66.8901C75.2727 66.4292 75.2553 65.9642 75.2374 65.4865ZM58.034 72.624C58.0561 72.3023 58.0738 72.0313 58.0992 71.6396C58.2144 71.6957 58.3159 71.7453 58.4092 71.791L58.4106 71.7917L58.4125 71.7926L58.4138 71.7932C58.5545 71.862 58.6767 71.9218 58.7993 71.9808C61.1383 73.1065 63.5516 73.3904 66.0292 72.5297C68.3882 71.7101 69.6781 69.248 68.9417 66.9223C68.3505 65.0558 66.9664 63.9655 65.1298 63.4188C64.3414 63.1842 63.5507 62.9568 62.7599 62.7293C61.8419 62.4653 60.9238 62.2012 60.0092 61.926C59.6455 61.8173 59.1375 61.6354 59.2839 61.174C59.3715 60.8979 59.8473 60.584 60.1634 60.5685C62.1364 60.4687 63.9364 60.9067 65.2906 62.496C65.3849 62.6058 65.5291 62.7422 65.6522 62.7445C66.3953 62.7597 67.139 62.7581 67.8884 62.7565H67.8884H67.8885H67.8888C68.1201 62.756 68.352 62.7556 68.5845 62.7556V57.5585H65.4148L65.3608 58.0446L65.3206 58.4058C65.2638 58.3814 65.2136 58.3614 65.1682 58.3432L65.1678 58.3431L65.1678 58.3431L65.1677 58.3431L65.1676 58.343C65.0811 58.3085 65.0122 58.2809 64.949 58.2439C62.9926 57.0871 60.8754 56.9307 58.6994 57.2978C57.3087 57.533 56.0421 58.1075 55.2835 59.3585C54.0524 61.3892 54.129 64.4058 57.1334 65.9463C58.0257 66.4039 59.0034 66.696 59.98 66.9877L59.9802 66.9878L59.9802 66.9878L59.9803 66.9878C60.3765 67.1061 60.7725 67.2244 61.1627 67.3537C61.5207 67.4728 61.8816 67.5829 62.2425 67.6929L62.2426 67.693C62.7792 67.8567 63.3156 68.0203 63.8422 68.2133C64.0005 68.2711 64.1228 68.4287 64.2448 68.5861C64.3006 68.658 64.3564 68.7299 64.4156 68.7922C64.3546 68.8418 64.2959 68.8976 64.2372 68.9533C64.1057 69.0782 63.9742 69.2031 63.8178 69.2591C63.4928 69.3756 63.1324 69.4199 62.7841 69.4355C60.7956 69.5231 59.0665 69.0107 57.8798 67.2683C57.8155 67.173 57.6747 67.0754 57.5682 67.0731C56.8511 67.0612 56.134 67.0624 55.4029 67.0636C55.1819 67.0639 54.9596 67.0643 54.7356 67.0643V72.624H58.034ZM51.5182 61.025H53.7009L53.702 61.0239V57.3285H43.9954V61.0173H46.1637V69.0159H43.9999V72.6325H53.7408C53.7408 72.4261 53.7416 72.2236 53.7424 72.024V72.0238V72.0236V72.0235C53.7442 71.5584 53.746 71.1087 53.7375 70.6595C53.735 70.5136 53.7456 70.3533 53.7563 70.1918C53.784 69.7739 53.8123 69.3479 53.6155 69.1423C53.4317 68.9492 53.0269 68.967 52.6224 68.9847C52.4459 68.9924 52.2696 69.0001 52.1116 68.9904H52.1116C52.0916 68.9892 52.0716 68.9881 52.0528 68.9904C51.587 69.0536 51.4561 68.8473 51.4606 68.3904C51.4749 66.8553 51.4738 65.3203 51.4727 63.7853C51.4722 63.0689 51.4717 62.3525 51.4728 61.6361C51.4728 61.5115 51.4849 61.3864 51.4982 61.2487L51.4982 61.2487C51.5051 61.178 51.5122 61.104 51.5182 61.025ZM79.0574 74.576C75.3676 79.8229 70.3324 82.5756 63.8644 82.3749C57.8588 82.1886 53.224 79.3893 49.7482 74.4828C50.1985 74.2832 50.4003 74.4506 50.6498 74.7312C51.3032 75.465 51.9762 76.1818 52.6489 76.8985C52.9514 77.2207 53.2539 77.5429 53.5545 77.8666C53.8096 78.1416 54.0702 78.1538 54.3852 77.9508C54.688 77.7556 55.0003 77.5748 55.3223 77.3885L55.3229 77.3881C55.4654 77.3056 55.6097 77.2221 55.756 77.1357C55.4111 76.6614 55.0799 76.2062 54.7555 75.7603L54.7526 75.7563C54.4385 75.3246 54.1307 74.9016 53.8229 74.4784C53.8482 74.4447 53.8736 74.4114 53.899 74.378L53.8993 74.3775L53.9003 74.3762C53.9255 74.3431 53.9507 74.3099 53.9759 74.2765C54.0469 74.3191 54.1232 74.3572 54.1995 74.3953L54.1996 74.3954C54.368 74.4795 54.5366 74.5637 54.648 74.6957C55.0457 75.1659 55.4144 75.6593 55.7834 76.153L55.7842 76.154C55.8719 76.2713 55.9596 76.3887 56.0477 76.5057C56.2362 76.7564 56.4225 76.8174 56.7419 76.6876C57.3548 76.4382 57.9783 76.2151 58.6203 75.9853C58.8833 75.8911 59.1494 75.7959 59.4192 75.6972C59.2815 75.3804 59.1546 75.0877 59.0299 74.7998L58.8713 74.434C59.3948 74.1889 59.5789 74.5261 59.6909 74.8566C59.895 75.4643 60.2421 75.5564 60.8499 75.4322C61.5809 75.2829 62.3304 75.2192 63.0785 75.1557C63.2474 75.1413 63.4163 75.127 63.5849 75.1116C63.9963 75.0739 64.2725 74.9641 64.1682 74.4784C64.7328 74.2111 64.7649 74.5726 64.766 74.983L65.391 75.0631C66.2331 75.1711 67.0685 75.2782 67.9047 75.3867C67.926 75.3894 67.9477 75.3916 67.9695 75.3939C68.0461 75.4019 68.1239 75.4101 68.193 75.4377C68.7221 75.6573 69.0404 75.4654 69.2223 74.9464C69.3409 74.607 69.4829 74.2643 70.0385 74.454C69.8877 74.8554 69.7369 75.2591 69.5749 75.6928C69.7963 75.7742 70.015 75.8554 70.2317 75.9359L70.2321 75.9361C70.9361 76.1975 71.62 76.4514 72.311 76.6821C72.4385 76.7242 72.687 76.6233 72.7824 76.5079C73.0079 76.2377 73.2223 75.9579 73.4367 75.6782L73.4368 75.678L73.4369 75.6779C73.6746 75.3677 73.9123 75.0574 74.1654 74.7601C74.2831 74.6218 74.4512 74.5268 74.6193 74.4318L74.6193 74.4318C74.6966 74.3881 74.774 74.3444 74.8463 74.2965C74.9073 74.3619 74.9683 74.4273 75.0293 74.4917C74.4536 75.2945 73.8779 76.0964 73.2437 76.9796L73.1483 77.1124C73.2907 77.1917 73.4324 77.2721 73.574 77.3524C74.0026 77.5957 74.4302 77.8383 74.8729 78.0484C74.9816 78.1006 75.2456 77.9597 75.3632 77.8366C75.8271 77.3488 76.2851 76.8551 76.7432 76.3614C77.2411 75.8247 77.739 75.2881 78.2445 74.759C78.3696 74.6278 78.5355 74.5361 78.7013 74.4444C78.7782 74.4019 78.855 74.3595 78.9277 74.3131C78.9709 74.4007 79.0142 74.4872 79.0586 74.5748L79.0574 74.576ZM64.7771 75.6207C64.7771 75.9528 64.7759 76.272 64.7746 76.5818C64.7714 77.3952 64.7684 78.1438 64.7893 78.8924C64.796 79.1209 64.969 79.5424 65.0544 79.539C65.2106 79.534 65.3741 79.5854 65.5378 79.6368C65.882 79.7449 66.2273 79.8533 66.5084 79.4392C67.0974 78.5709 67.6674 77.6896 68.2375 76.8083L68.4692 76.4503C68.4977 76.4057 68.5053 76.3481 68.5174 76.2559C68.5246 76.2013 68.5334 76.1344 68.549 76.051C67.7504 75.9602 66.9714 75.8713 66.1757 75.7804L64.7771 75.6207ZM60.4551 76.0344L60.4354 76.0885C60.4109 76.1562 60.3862 76.2243 60.3608 76.2917C60.5392 76.5662 60.7155 76.8423 60.8918 77.1184L60.8923 77.1192C61.2812 77.7283 61.6701 78.3373 62.0821 78.9301C62.7109 79.8363 62.7653 79.8462 63.8111 79.5601C63.9575 79.5202 64.1505 79.2928 64.1538 79.1464C64.1838 78.1305 64.1804 77.1135 64.156 76.0976C64.1527 75.9634 63.9575 75.7116 63.8655 75.7183C62.9653 75.784 62.0672 75.8733 61.169 75.9626C60.9307 75.9863 60.6923 76.01 60.454 76.0333L60.4551 76.0344ZM61.9357 79.8839L61.5405 79.2442C60.9837 78.3427 60.4284 77.4435 59.8651 76.5501C59.8041 76.4536 59.6377 76.3294 59.5634 76.3527C58.8542 76.5763 58.1493 76.8164 57.3924 77.0744L57.3921 77.0744C57.2104 77.1363 57.0258 77.1993 56.8373 77.2632C56.9199 77.3591 56.9845 77.4402 57.0398 77.5096C57.136 77.6303 57.2038 77.7152 57.2876 77.78C57.6832 78.0878 58.0814 78.392 58.4797 78.6962C58.9971 79.0914 59.5145 79.4865 60.0259 79.8895C60.6569 80.3875 61.2736 80.4673 61.9368 79.8839H61.9357ZM67.0019 79.9083C67.5675 80.3132 68.081 80.4363 68.6655 79.9815C69.2099 79.5574 69.7732 79.1567 70.3364 78.7561L70.3365 78.756C70.6143 78.5584 70.8921 78.3608 71.1676 78.1605C71.3812 78.0048 71.5911 77.845 71.8014 77.6849C71.8968 77.6123 71.9922 77.5396 72.0881 77.4673C72.067 77.4185 72.0457 77.3697 72.0243 77.3209C72.0116 77.2918 71.9988 77.2626 71.9861 77.2335C71.9776 77.2138 71.969 77.1942 71.9605 77.1745C71.7679 77.1142 71.5755 77.0533 71.3831 76.9925L71.3828 76.9924C70.7477 76.7917 70.1129 76.5911 69.4729 76.4081C69.3698 76.3782 69.1646 76.4714 69.1014 76.5689C68.5425 77.4394 67.9955 78.3168 67.4393 79.209L67.439 79.2095C67.2944 79.4414 67.1492 79.6743 67.003 79.9083H67.0019ZM60.8244 81.2936C61.8403 82.0067 67.135 82.0011 68.142 81.2913C66.637 79.7642 62.2496 79.7653 60.8244 81.2936ZM68.7198 80.7557L68.7232 80.9509C68.8069 80.9608 68.8927 80.9791 68.9784 80.9974L68.9785 80.9974L68.9785 80.9974C69.162 81.0366 69.3452 81.0757 69.5062 81.0318C71.121 80.5982 72.5883 79.8385 73.9779 78.9224C74.0671 78.8639 74.1399 78.7799 74.2271 78.6792L74.2272 78.6792C74.2723 78.6271 74.3212 78.5706 74.3783 78.5109C74.2363 78.4291 74.0994 78.3528 73.9668 78.279L73.9663 78.2787C73.6839 78.1215 73.4214 77.9752 73.1716 77.81C72.8178 77.576 72.5705 77.6481 72.25 77.912C71.4894 78.5373 70.7128 79.1423 69.9361 79.7473L69.936 79.7474C69.5927 80.0148 69.2493 80.2823 68.9073 80.5516C68.8579 80.5903 68.8174 80.6395 68.7768 80.6887C68.7581 80.7113 68.7394 80.734 68.7198 80.7557ZM54.5892 78.5109C54.6215 78.5692 54.6424 78.6113 54.6578 78.6422C54.6811 78.6889 54.6917 78.7101 54.709 78.7228C56.1974 79.8318 57.8521 80.6037 59.6377 81.0873C59.7538 81.1187 59.8978 81.0485 60.0463 80.976C60.1177 80.9412 60.1901 80.9058 60.261 80.881C60.2275 80.8161 60.2058 80.7702 60.1902 80.737L60.1902 80.737C60.1671 80.688 60.1571 80.6669 60.1412 80.6536C59.9294 80.4879 59.7177 80.3221 59.5059 80.1562C58.506 79.3731 57.5062 78.5899 56.4957 77.8211C56.3715 77.7268 56.1153 77.6858 55.98 77.749C55.6417 77.9062 55.3177 78.0933 54.9849 78.2854L54.9848 78.2854C54.8551 78.3603 54.7241 78.436 54.5904 78.5109H54.5892ZM58.7608 55.5156C58.7607 55.5159 58.7605 55.5162 58.7604 55.5165L58.7593 55.5154L58.7608 55.5156ZM59.0541 54.8064C58.9535 55.0497 58.8579 55.281 58.7608 55.5156L58.791 55.5201C59.3222 55.599 59.3678 55.6058 59.5157 55.1793C59.7408 54.5294 60.0791 54.3564 60.7789 54.5206C61.4801 54.6849 62.2061 54.7459 62.9303 54.8067C63.1247 54.8231 63.3191 54.8394 63.5128 54.8577C63.5345 54.8598 63.5561 54.8617 63.5773 54.8635C63.8649 54.8886 64.0998 54.909 64.0895 55.318C64.0884 55.4 64.2891 55.5553 64.3923 55.552C64.4976 55.5487 64.6263 55.4078 64.6928 55.2958C64.7374 55.2202 64.7471 55.124 64.7556 55.0401C64.759 55.0071 64.7621 54.9759 64.7671 54.9487C65.093 54.907 65.4161 54.8719 65.7363 54.8371C66.4896 54.7554 67.2269 54.6753 67.9468 54.515C68.6045 54.3686 68.935 54.5294 69.1313 55.125C69.2522 55.4921 69.4662 55.6928 69.9065 55.4899C69.7643 55.1097 69.6222 54.7286 69.4746 54.3331L69.4407 54.2422C69.6772 54.1539 69.9102 54.066 70.1409 53.979C70.8317 53.7183 71.5011 53.4657 72.1779 53.2363C72.3099 53.1919 72.565 53.2873 72.6626 53.4026C73.1672 54.0004 73.6507 54.6159 74.1154 55.2448C74.3295 55.5354 74.5413 55.6851 74.965 55.4577L74.6732 55.0511C74.1426 54.3115 73.6173 53.5795 73.0707 52.8181C73.2177 52.7311 73.3614 52.6486 73.5021 52.5679C73.822 52.3844 74.1256 52.2102 74.4138 52.013C74.7099 51.81 74.9395 51.8111 75.1846 52.0695C75.488 52.3893 75.7933 52.7074 76.0986 53.0256C76.7663 53.7215 77.4341 54.4174 78.0826 55.1305L78.0914 55.1402C78.3434 55.4163 78.5428 55.6348 79.0186 55.4156C75.3997 50.3727 70.5775 47.6122 64.3789 47.6166C58.1371 47.6211 53.2827 50.386 49.7936 55.5631C50.1141 55.4999 50.4114 55.3712 50.6199 55.1561C51.0876 54.675 51.5475 54.1866 52.0072 53.6984C52.4982 53.177 52.989 52.6559 53.489 52.1438C53.6177 52.0119 53.9315 51.8998 54.0713 51.9653C54.4669 52.1501 54.8431 52.3756 55.2277 52.6061C55.3714 52.6922 55.5164 52.779 55.6639 52.8647C55.3087 53.3651 54.9601 53.8558 54.6143 54.3424C54.3393 54.7295 54.0661 55.114 53.7929 55.4988C53.8218 55.5309 53.8506 55.5628 53.8795 55.5947C53.9083 55.6266 53.9371 55.6585 53.9659 55.6906C54.0379 55.6424 54.1145 55.5982 54.1911 55.5541C54.3576 55.4582 54.524 55.3623 54.6425 55.2248C54.8996 54.926 55.1408 54.6133 55.3821 54.3006C55.5831 54.04 55.7842 53.7794 55.9944 53.5268C56.1042 53.3949 56.3427 53.2252 56.4602 53.264C57.1776 53.4983 57.8859 53.7599 58.6075 54.0264C58.8285 54.1081 59.0508 54.1902 59.275 54.2721C59.1974 54.4597 59.1245 54.636 59.0541 54.8064ZM64.0529 53.6711C64.0529 53.8847 64.0529 54.1021 64.0529 54.3243C63.3729 54.2506 62.7141 54.1788 62.0498 54.1064C61.4637 54.0426 60.8732 53.9782 60.2599 53.9117C60.2969 53.8065 60.3239 53.7168 60.3474 53.6389C60.3893 53.4998 60.42 53.3981 60.4761 53.3128C61.0761 52.3989 61.6795 51.4873 62.3028 50.59C62.5168 50.2817 63.7213 50.2396 63.973 50.508C64.0207 50.559 64.0496 50.6488 64.0496 50.7209C64.0532 51.674 64.0531 52.6262 64.0529 53.6711ZM68.5102 53.7209C67.2071 54.1379 66.0115 54.2577 64.7028 54.2322C64.7028 53.9918 64.7027 53.7533 64.7026 53.5164C64.7023 52.5765 64.7019 51.6615 64.7072 50.7464C64.7083 50.6588 64.7449 50.5423 64.8082 50.4891C65.1464 50.2019 66.1801 50.3205 66.4352 50.6876C66.9134 51.3757 67.385 52.0687 67.8789 52.7943C68.0848 53.0968 68.2945 53.405 68.5102 53.7209ZM67.3391 50.8654C67.1726 50.6013 67.0052 50.3358 66.8366 50.0688C67.4389 49.6074 68.0089 49.5253 68.6167 49.9967C69.1688 50.4258 69.7267 50.8473 70.2846 51.2689C70.7073 51.5883 71.13 51.9076 71.5502 52.2303C71.6241 52.2867 71.6829 52.3623 71.7676 52.4713C71.8163 52.534 71.8736 52.6076 71.9472 52.695C71.729 52.7678 71.5158 52.8393 71.3065 52.9094C70.6 53.1463 69.9373 53.3686 69.2699 53.5756C69.1867 53.6011 69.0115 53.4991 68.9527 53.4082C68.4125 52.5686 67.8801 51.7238 67.3391 50.8654ZM57.5329 52.9798C57.2788 52.8949 57.0175 52.8075 56.7464 52.715V52.7139C58.014 51.4573 59.2506 50.4503 60.6946 49.7482C60.8795 49.6584 61.1493 49.745 61.4485 49.841C61.5963 49.8884 61.7513 49.9382 61.9068 49.9701C61.8574 50.0587 61.8161 50.1343 61.7797 50.201C61.7058 50.3363 61.652 50.4347 61.5919 50.529C61.4065 50.8204 61.2198 51.1107 61.033 51.401C60.6297 52.0279 60.2266 52.6546 59.8384 53.2906C59.6687 53.5668 59.529 53.6843 59.1918 53.5568C58.6565 53.3554 58.1136 53.1739 57.5329 52.9798ZM68.081 48.566C65.5424 48.0303 63.1135 47.997 60.6181 48.5915C62.1131 50.2207 66.5549 50.2196 68.081 48.566ZM54.8581 51.683C54.7055 51.5995 54.5388 51.5083 54.353 51.403C54.5809 51.2601 54.7918 51.1207 54.9932 50.9876C55.4173 50.7074 55.7991 50.4551 56.2073 50.2573C57.19 49.7815 58.1992 49.3567 59.2207 48.973C59.4 48.9062 59.6203 48.9491 59.8408 48.9921C59.9422 49.0118 60.0437 49.0316 60.1412 49.0407C60.144 49.0761 60.1465 49.1116 60.149 49.147C60.1515 49.1826 60.154 49.2181 60.1567 49.2536C60.1204 49.2836 60.0841 49.3141 60.0478 49.3446C59.97 49.4099 59.8919 49.4755 59.8118 49.5375C59.5011 49.7772 59.1891 50.0153 58.8771 50.2535C58.1032 50.8444 57.329 51.4354 56.5733 52.0496C56.2506 52.3124 56.011 52.3923 55.6539 52.1494C55.418 51.9891 55.1667 51.8517 54.8581 51.683ZM68.622 49.2408C68.5986 49.2027 68.5677 49.1525 68.5224 49.085V49.0839C68.6174 49.0608 68.7092 49.0287 68.7969 48.9981C68.9744 48.9361 69.1348 48.8801 69.2699 48.9164C71.0222 49.3889 72.6204 50.193 74.0877 51.2599C74.104 51.2714 74.1124 51.2938 74.1279 51.3351C74.1377 51.3613 74.1504 51.395 74.1698 51.4385C74.0459 51.5103 73.9221 51.5839 73.7979 51.6577C73.4639 51.8562 73.1268 52.0565 72.7768 52.2303C72.6626 52.2869 72.4308 52.2259 72.3143 52.1383C71.2264 51.3124 70.1482 50.4739 69.0695 49.635C68.9474 49.54 68.8253 49.445 68.7032 49.3501C68.6769 49.3299 68.6584 49.2998 68.622 49.2408Z" fill="#2A3138"/>
</svg>
