<svg width="130" height="130" viewBox="0 0 130 130" fill="none" xmlns="http://www.w3.org/2000/svg">
<circle cx="65" cy="65" r="48.5" stroke="#2A3138" stroke-width="3"/>
<path fill-rule="evenodd" clip-rule="evenodd" d="M88.5422 57.9413L45.8399 57.9592H43.2888V59.3397L45.5644 59.3487L45.5822 59.3576L98.0888 59.3487L98.6755 57.9413C97.7155 57.9413 89.1644 57.9771 88.9955 57.9233C88.8177 57.9413 88.7466 57.9771 88.5422 57.9413ZM87.2799 64.046C87.3688 64.046 87.4666 64.028 87.5466 63.9922C88.2133 63.795 89.0577 63.5529 89.7422 63.5529C90.0533 63.544 90.3644 63.6605 90.5955 63.8667C91.1377 64.4135 90.8444 65.3996 90.7022 66.1795L89.3688 73.2164C89.2799 73.6826 89.1733 74.1487 89.1022 74.6149C88.9955 75.2603 88.9066 75.4844 88.9066 76.2553C88.9066 77.6448 89.7244 78.8102 91.0844 78.8102C92.3377 78.8102 93.3155 78.344 94.3288 77.7255C94.7999 77.4207 95.2622 77.098 95.6977 76.7484C95.8488 76.6229 96.6044 75.9954 96.6399 75.9326L96.6666 74.7762C96.5422 74.8121 96.0888 75.2872 95.911 75.4217C95.6533 75.6278 95.4133 75.8519 95.1199 76.0671C94.6577 76.3988 92.9422 77.5821 92.3999 76.5781C92.1155 76.0492 92.2133 75.332 92.3377 74.7673C92.5155 73.9874 92.7644 72.6696 92.9155 71.9077C93.1644 70.6347 93.4222 69.3976 93.6799 68.1247L94.0621 66.2512C94.2399 65.4892 94.4799 64.1804 94.6399 63.3916C94.7021 63.0688 94.7822 62.7372 94.8355 62.4413C94.8888 62.1455 95.1999 60.7381 95.1999 60.514C95.1199 60.5409 95.0399 60.5678 94.951 60.5947L87.6355 62.9433C87.3244 63.033 87.351 62.9792 87.3422 63.3647C87.3333 63.5798 87.2799 63.8487 87.2799 64.046Z" fill="#2A3138"/>
<path fill-rule="evenodd" clip-rule="evenodd" d="M69.6088 72.9834C69.6088 74.1936 69.8399 75.4396 70.6221 76.1926L70.6932 76.2553C72.1065 77.5731 74.2132 76.3271 75.4043 75.3499C76.2221 74.6597 76.9777 73.8977 77.6532 73.064C77.7954 72.8848 77.9199 72.7324 78.0532 72.5531C78.5243 71.9166 78.7288 71.576 79.1643 70.9216C79.431 70.5182 79.5465 70.2582 79.751 69.9086L79.8488 69.7742L79.6265 70.9574C79.5377 71.4236 78.9777 74.1936 78.9777 74.5521C78.9777 76.8022 80.4888 77.1876 82.3021 76.4615L82.8799 76.1926C83.0577 76.085 83.2443 76.0043 83.4221 75.8878C83.9288 75.5651 84.4088 75.1886 84.8443 74.7762C85.0043 74.6149 85.7599 73.8439 85.8399 73.6557L86.0177 72.562C85.1465 73.3868 84.5865 74.1667 83.4932 74.8569C83.0221 75.1527 81.9465 75.7623 81.6443 74.9107C81.351 74.1039 82.0532 71.7822 82.231 70.7244C82.3821 69.8369 82.7377 68.3578 82.9243 67.4255L83.271 65.7761C83.3332 65.5161 83.3865 65.2382 83.4399 64.9693C83.4843 64.7452 83.9465 62.5669 83.9554 62.4682C83.7599 62.4682 83.4399 62.4145 83.2443 62.4055C82.3465 62.3607 81.7065 62.3069 80.7465 62.3069C78.1954 62.3069 76.3021 62.8178 74.4977 64.1894L73.0221 65.4534C72.9065 65.5699 72.8088 65.6595 72.7021 65.785C72.4977 66.036 72.2665 66.2691 72.071 66.5291C71.7688 66.9145 71.4843 67.3269 71.2265 67.7482C70.6932 68.6357 70.2754 69.5949 69.991 70.5989C69.751 71.3788 69.6265 72.1766 69.6088 72.9834ZM73.4399 74.7493C73.0932 74.7404 72.7732 74.5521 72.6043 74.2473C71.9554 73.1627 72.5688 70.7154 72.8888 69.55C73.1465 68.6626 73.4754 67.811 73.8843 66.9863C74.1865 66.3856 74.8177 65.2741 75.2532 64.8348C75.3954 64.6824 75.5465 64.539 75.7154 64.4225C76.8621 63.6336 78.3377 63.7412 79.6354 64.0011C79.911 64.0549 80.791 64.2701 80.9954 64.3687C80.9777 64.5569 80.551 66.6098 80.5243 66.6815C80.471 66.8159 80.3999 66.9325 80.3465 67.058C79.991 67.9454 78.7999 69.8728 78.2488 70.6078L77.0221 72.1587C76.6843 72.571 76.3288 72.9565 75.9465 73.333C75.4932 73.7812 75.7421 73.6647 75.0488 74.1308C74.711 74.3639 74.0177 74.7493 73.4399 74.7493Z" fill="#2A3138"/>
<path fill-rule="evenodd" clip-rule="evenodd" d="M45.5822 59.3666L45.5644 59.3576L43.2889 59.3487V57.9682H45.84C45.84 57.8068 46.3644 55.001 46.3911 54.8486C46.7911 53.0019 48.0089 51.3166 49.9644 51.0567C50.5156 50.9939 51.0756 51.0477 51.6089 51.218C52.1867 51.4063 52.8533 51.7918 52.88 51.8007C52.9689 51.738 54.2222 50.5009 54.4 50.3216C55.0044 49.712 55.0222 49.8555 54.3911 49.7569C52.8 49.5238 50.7378 49.712 49.2444 50.3216C48.5511 50.5905 47.8844 50.9491 47.2711 51.3704L46.6489 51.8545C46.5689 51.9262 46.5067 51.9621 46.4356 52.0338C45.7689 52.6434 45.1911 53.3426 44.7289 54.1045C44.6311 54.2659 44.5333 54.4183 44.4533 54.5797C43.9378 55.5837 43.9111 55.736 43.5822 56.7132C43.52 56.8924 43.4578 57.1165 43.4133 57.3048C43.3867 57.4303 43.3689 57.502 43.3422 57.6275C43.3067 57.7351 43.2889 57.8427 43.28 57.9592H39.7422V59.3666H43.0222L42.7556 60.9264C42.6667 61.4284 42.5778 62.0021 42.4711 62.5131C42.0711 64.53 41.76 66.798 41.36 68.797C41.1556 69.8279 40.9956 70.9036 40.8 71.9614C40.1333 75.5472 39.8756 79.8142 35.0933 79.0253C34.5689 78.9357 34.1067 78.7833 33.6 78.6578L32 80.5851C33.9111 80.6299 34.9156 81.0333 36.9333 80.3072C38.2756 79.8142 39.4489 78.9536 40.3289 77.8151C40.6133 77.4476 40.7556 77.2414 41.0222 76.847C41.5467 76.0581 42.1244 74.7583 42.4533 73.8708C43.7689 70.2941 44.3022 65.9285 45.0489 62.1724C45.12 61.8407 45.5378 59.4562 45.5822 59.3666Z" fill="#2A3138"/>
<path fill-rule="evenodd" clip-rule="evenodd" d="M47.9555 66.4035C47.9555 66.8159 48.0266 67.2193 48.16 67.6047C48.2577 67.9364 48.4177 68.2322 48.64 68.4922C48.9244 68.8149 49.3066 69.299 49.6 69.5858C49.7955 69.7831 50.3288 70.4375 50.56 70.6795C51.36 71.549 52.08 72.2482 52.08 73.5391C52.08 74.57 51.12 75.3409 50.0977 75.3409H49.6711C48.5955 75.3409 47.0577 74.579 46.3911 74.1308L44.6666 75.9684C44.7822 75.9774 44.9511 76.067 45.0844 76.1029C45.8666 76.3629 47.0133 76.6945 47.8222 76.6856C48.0444 76.6856 48.1422 76.7214 48.3733 76.7214C49.5911 76.7214 50.8 76.4166 51.8666 75.825C52.0088 75.7533 52.1422 75.6636 52.2666 75.574C54.0888 74.2742 54.7644 72.051 53.3866 70.2134C53.0488 69.7651 52.4622 69.1018 52.0977 68.6356L50.8266 67.0669C50.3377 66.5111 49.9555 65.8746 49.9555 65.0589C49.9555 63.8218 51.1911 63.1316 52.2933 63.1316C53.1466 63.1316 53.9733 63.3377 54.4088 64.0369C54.7822 64.6286 54.5688 65.0589 54.5688 65.4533H55.4133L56.0622 62.6027L55.5288 62.4144C55.3244 62.3517 55.1733 62.3158 54.96 62.271C52.7111 61.7331 49.8577 62.513 48.5244 64.5389C48.1688 65.0858 47.9644 65.7312 47.9555 66.4035Z" fill="#2A3138"/>
<path fill-rule="evenodd" clip-rule="evenodd" d="M59.7066 66.3677C59.7066 66.9772 59.7689 67.1565 59.9377 67.6765C60 67.8378 60.0622 67.9992 60.1511 68.1516C60.3022 68.4564 61.1289 69.3169 61.4044 69.6396C61.4666 69.7114 61.4755 69.7472 61.5466 69.8189C61.6089 69.8817 61.6622 69.9444 61.7155 70.0072L62.8266 71.2801C62.8889 71.3429 62.9422 71.3877 63.0044 71.4594C63.8044 72.4186 64.2666 73.8529 63.2355 74.812C62.3022 75.6816 60.6577 75.314 59.6444 74.9106C59.2444 74.7403 58.8444 74.5521 58.4711 74.328C58.3644 74.2652 58.2133 74.1397 58.08 74.1308L56.4266 75.9415C57.1022 76.3001 58.9155 76.6945 59.7066 76.6945C60.8711 76.6945 61.3866 76.7035 62.5155 76.318C64.7111 75.583 66.5422 73.4315 65.6444 71.1546C65.5111 70.8229 65.3511 70.5092 65.1466 70.2223C64.8622 69.8458 64.1955 69.0659 63.8666 68.6625C63.44 68.1247 63.0133 67.6316 62.5955 67.0938C62.3111 66.7262 62.2311 66.6993 62.0177 66.2691C61.7066 65.6326 61.5733 64.8796 61.92 64.2252C62.0355 64.0101 62.1955 63.8308 62.3911 63.6873C63.5644 62.7102 66.3911 62.9523 66.3911 64.8706C66.3822 65.0589 66.3555 65.2471 66.2933 65.4264H67.1733L67.7866 62.5758C67.5289 62.513 67.2089 62.3786 66.7555 62.271C65.6 61.9931 64.0444 62.0738 62.9777 62.4951C62.6666 62.6206 62.4533 62.7102 62.1689 62.8537C61.6622 63.1136 61.2089 63.4543 60.8177 63.8666C60.1955 64.4852 59.7155 65.3906 59.7066 66.3677Z" fill="#2A3138"/>
<path fill-rule="evenodd" clip-rule="evenodd" d="M34.2133 80.9706H33.3067C32.8444 80.9706 32.4978 80.9079 32.0444 80.9079V81.1051H93.6089C93.6355 80.9975 93.9644 80.2804 94.0533 80.11C94.1244 80.0025 94.1689 79.8859 94.1955 79.7604H39.7422C38.0444 79.7604 39.1022 79.7335 37.44 80.3521C36.5244 80.7017 35.2622 80.9706 34.2133 80.9706Z" fill="#2A3138"/>
<path fill-rule="evenodd" clip-rule="evenodd" d="M91.0666 56.3547C91.1111 56.5251 91.1733 56.6326 91.2 56.7761C91.0133 56.8298 90.64 57.4215 89.2089 57.6456C89.0666 57.6725 88.9155 57.6904 88.7644 57.6904C88.5066 57.6904 88.5422 57.6904 88.5422 57.9414C88.7466 57.9862 88.8266 57.9414 88.9955 57.9414C89.6622 57.8249 89.9733 57.8249 90.6489 57.4663C90.8711 57.3498 91.0755 57.2063 91.2711 57.045C91.4755 56.8657 91.6889 56.9553 92.1689 56.8657C93.3333 56.6595 94.1244 55.9603 94.6844 55.1177C95.8222 53.3875 96.1422 50.8775 96.1422 48H96.08C96.0355 48.5199 95.0044 50.0618 94.5777 50.5459C94.5066 50.6265 94.48 50.6803 94.4 50.761L92.8355 52.4194C92.5422 52.7421 92.1333 53.1903 91.8844 53.522C91.52 53.9971 91.1733 54.526 91.0489 55.1356C90.9511 55.539 90.96 55.9603 91.0666 56.3547Z" fill="#2A3138"/>
<path fill-rule="evenodd" clip-rule="evenodd" d="M90.8355 55.4134C90.8 55.3506 90.7644 55.2879 90.72 55.2251C90.32 54.6693 89.5466 54.5438 88.9955 54.9472C88.9244 54.9921 88.8622 55.0548 88.8088 55.1176C88.5866 55.3596 88.4711 55.6016 88.4711 56.0588C88.4711 56.4353 88.6311 56.6863 88.8533 56.9194C89.3333 57.4035 90.1155 57.4035 90.5955 56.9104C90.6133 56.8925 90.6222 56.8835 90.64 56.8656C90.8088 56.6684 90.9155 56.4263 90.96 56.1664C90.9866 55.9064 90.9422 55.6464 90.8355 55.4134Z" fill="#2A3138"/>
</svg>
